# xmcd
#
# Track frame offsets: 
#        150
#        12301
#        26153
#        39536
#        49767
#        65275
#        78403
#        91316
#        104132
#        117987
#        131118
#        145353
#        158829
#        173809
#        186950
#        200698
#        215838
#        230890
#        242662
#        257328
#        270067
#        284096
#        297171
#        312275
#        326815
#
# Disc length: 4471 seconds
#
# Revision: 1
# Processed by: cddbd v1.5.2PL0 Copyright (c) Steve Scherf et al.
# Submitted via: ExactAudioCopy v1.3
#
DISCID=81117519
DTITLE=Various Artist - Jazz Noire (Darktown Sleaze of 1940s L.A.)
DYEAR=2011
DGENRE=Jazz
TTITLE0=Miklos Rozsa - Theme from "The Killers" (1946)
TTITLE1=Johnny Otis, His Drums and His Orchestra - Harlem Nocturne 
TTITLE2=Ella Fitzgerald - I'm Just A Lucky So-And-So 
TTITLE3=Buddy Johnson and His Orchestra - If I Ever Find You, Baby 
TTITLE4=Billie Holiday - Don't Explain 
TTITLE5=The King Cole Trio - Blues In My Shower 
TTITLE6=Jimmy Witherspoon with Jay McShann and His Orchestra - Skid Row 
TTITLE6=Blues 
TTITLE7=Dinah Washington with Dave Young and His Orchestra - You Satisfy
TTITLE7=
TTITLE8=T-Bone Walker and His Guitar - Call It Stormy Monday 
TTITLE9=Baron Mingus and His Octet - This Subdues My Passion 
TTITLE10=Billie Holiday - No Good Man
TTITLE11=Percy Mayfield with Monroe Tucker and His Orchestra - Leary Blu
TTITLE11=es 
TTITLE12=Ella Johnson with Buddy Johnson and His Orchestra - You Can't T
TTITLE12=ell Who's Lovin' Who 
TTITLE13=Leo Parker's All Stars - Solitude
TTITLE14=Alice Roberts with Dizzy Gillespie and His Orchestra - Good Due
TTITLE14=s Blues
TTITLE15=Arthur Prysock with Buddy Johnson and His Orchestra - Serves Me
TTITLE15=Right 
TTITLE16=Etta Jones with Luther Henderson and His Orchestra - What Ev'ry
TTITLE16=Woman Knows 
TTITLE17=Amos Milburn - Money Hustlin' Woman 
TTITLE18=Helen Humes with Buck Clayton and His Orchestra - Blue And Sent
TTITLE18=imental
TTITLE19=Dizzy Gillespie Sextet - All The Things You Are
TTITLE20=Claude Trenier with Charles Mingus Sextette - Weird Nightmare
TTITLE21=Wini Brown with Lionel Hampton and His Orchestra - Gone Again
TTITLE22=Billy Eckstine and His Orchestra - Jelly Jelly
TTITLE23=Thelonious Monk Quintet - Round About Midnight
TTITLE24=Miklos Rozsa - Theme from "Double Indemnity" (1944)
EXTD=YEAR: 2011
EXTT0=
EXTT1=
EXTT2=
EXTT3=
EXTT4=
EXTT5=
EXTT6=
EXTT7=
EXTT8=
EXTT9=
EXTT10=
EXTT11=
EXTT12=
EXTT13=
EXTT14=
EXTT15=
EXTT16=
EXTT17=
EXTT18=
EXTT19=
EXTT20=
EXTT21=
EXTT22=
EXTT23=
EXTT24=
PLAYORDER=
